<?xml version="1.0" standalone="no"?>
<!DOCTYPE svg PUBLIC "-//W3C//DTD SVG 20010904//EN"
 "http://www.w3.org/TR/2001/REC-SVG-20010904/DTD/svg10.dtd">
<svg version="1.0" xmlns="http://www.w3.org/2000/svg"
 width="203.000000pt" height="203.000000pt" viewBox="0 0 203.000000 203.000000"
 preserveAspectRatio="xMidYMid meet">
<metadata>
Created by potrace 1.15, written by Peter Selinger 2001-2017
</metadata>
<g transform="translate(0.000000,203.000000) scale(0.100000,-0.100000)"
fill="#000000" stroke="none">
<path d="M0 1530 l0 -500 80 0 80 0 0 48 c0 27 9 84 21 128 60 232 209 422
413 525 85 43 201 79 253 79 17 0 39 8 49 17 15 16 16 15 9 -18 -9 -42 -14
-51 -25 -44 -11 7 -135 -20 -185 -40 -202 -81 -352 -227 -427 -415 -41 -102
-48 -130 -55 -207 l-6 -73 246 0 245 0 11 28 11 27 -5 -27 -5 -27 117 -4 c65
-1 -47 -4 -249 -5 l-367 -2 -4 -47 -3 -48 -2 48 c-2 34 -6 47 -17 47 -44 0 1
-224 73 -365 37 -70 66 -109 133 -176 47 -47 100 -94 117 -105 33 -19 38 -30
23 -53 -12 -19 -81 29 -171 120 -110 110 -175 222 -215 372 -14 50 -25 118
-25 150 l0 57 -60 0 -60 0 0 -510 0 -510 1015 0 1015 0 0 1015 0 1015 -1015 0
-1015 0 0 -500z m970 450 c5 -22 15 -57 20 -79 l10 -39 76 -11 c327 -48 589
-275 679 -586 29 -100 33 -124 34 -187 l1 -47 88 -4 87 -3 -106 -2 -106 -2 -7
-62 c-11 -103 -16 -130 -37 -188 -55 -149 -156 -290 -266 -370 -37 -27 -62
-53 -63 -64 0 -13 5 -16 16 -12 13 5 14 3 7 -6 -12 -15 -13 -11 26 -167 18
-68 30 -125 29 -127 -2 -2 -60 53 -129 121 l-125 124 -54 -14 c-29 -8 -84 -17
-122 -21 l-68 -7 -2 -106 -2 -106 -3 88 -4 87 -45 0 c-25 0 -80 8 -122 17 -42
9 -89 17 -104 17 l-27 1 22 24 c37 41 61 60 77 60 9 0 6 -4 -6 -9 -12 -5 -25
-13 -28 -18 -6 -11 82 -32 172 -41 55 -6 62 -5 62 11 0 14 -8 18 -37 18 -21 0
-44 4 -51 9 -8 5 8 6 37 3 l51 -5 0 119 0 119 -102 -100 -103 -100 103 105
102 106 0 734 c0 404 0 741 0 748 0 24 9 11 20 -28z"/>
<path d="M1019 1792 c7 -12 10 -22 8 -22 -3 0 37 -165 88 -367 l92 -368 244
-5 244 -6 -241 -2 -241 -2 76 -309 c63 -257 78 -307 91 -301 36 19 154 138
189 189 86 129 120 233 130 406 4 66 9 99 9 73 2 -39 5 -48 20 -48 16 0 17 7
11 73 -11 106 -24 157 -67 249 -45 96 -112 188 -183 252 -113 102 -291 187
-423 202 -57 7 -58 7 -47 -14z"/>
<path d="M960 396 l0 -119 68 6 c85 8 132 17 132 26 0 3 -45 51 -100 106
l-100 100 0 -119z"/>
</g>
</svg>
